<?xml version="1.0" encoding="utf-8"?>
<!-- Generator: Adobe Illustrator 19.0.0, SVG Export Plug-In . SVG Version: 6.00 Build 0)  -->
<svg version="1.1"
	 id="Layer_1" xmlns:rdf="http://www.w3.org/1999/02/22-rdf-syntax-ns#" xmlns:cc="http://creativecommons.org/ns#" xmlns:dc="http://purl.org/dc/elements/1.1/"
	 xmlns="http://www.w3.org/2000/svg" xmlns:xlink="http://www.w3.org/1999/xlink" x="0px" y="0px" viewBox="-499 373 24 24"
	 style="enable-background:new -499 373 24 24;" xml:space="preserve">
<style type="text/css">
	.st0{fill:#E67E22;}
	.st1{fill:#F1C40F;}
</style>
<g transform="translate(0 -1028.4)">
	<g>
		<path class="st0" d="M-477,1411.2c0,0.2-0.1,0.4-0.3,0.6l-4.4,4.2l1,6.1c0,0,0,0.1,0,0.2c0,0.2,0,0.3-0.1,0.4
			c-0.1,0.1-0.2,0.2-0.4,0.2c-0.2,0-0.3,0-0.5-0.1l-5.4-2.9l-5.4,2.9c-0.2,0.1-0.3,0.1-0.5,0.1c-0.2,0-0.3-0.1-0.4-0.2
			c-0.1-0.1-0.1-0.2-0.1-0.4c0,0,0-0.1,0-0.2l1-6.1l-4.4-4.2c-0.2-0.2-0.3-0.4-0.3-0.6c0-0.3,0.2-0.5,0.7-0.5l6-0.9l2.7-5.5
			c0.2-0.3,0.3-0.5,0.6-0.5s0.4,0.2,0.6,0.5l2.7,5.5l6,0.9C-477.2,1410.7-477,1410.9-477,1411.2"/>
	</g>
	<g>
		<path class="st1" d="M-477,1410.2c0,0.2-0.1,0.4-0.3,0.6l-4.4,4.2l1,6.1c0,0,0,0.1,0,0.2c0,0.2,0,0.3-0.1,0.4
			c-0.1,0.1-0.2,0.2-0.4,0.2c-0.2,0-0.3,0-0.5-0.1l-5.4-2.9l-5.4,2.9c-0.2,0.1-0.3,0.1-0.5,0.1c-0.2,0-0.3-0.1-0.4-0.2
			c-0.1-0.1-0.1-0.2-0.1-0.4c0,0,0-0.1,0-0.2l1-6.1l-4.4-4.2c-0.2-0.2-0.3-0.4-0.3-0.6c0-0.3,0.2-0.5,0.7-0.5l6-0.9l2.7-5.5
			c0.2-0.3,0.3-0.5,0.6-0.5s0.4,0.2,0.6,0.5l2.7,5.5l6,0.9C-477.2,1409.7-477,1409.9-477,1410.2"/>
	</g>
</g>
</svg>
